<?xml version="1.0" encoding="UTF-8"?>
<!-- Created with Inkscape (http://www.inkscape.org/) -->
<svg id="SVGRoot" width="1e3px" height="1e3px" version="1.1" viewBox="0 0 1e3 1e3" xml:space="preserve" xmlns="http://www.w3.org/2000/svg" xmlns:cc="http://creativecommons.org/ns#" xmlns:dc="http://purl.org/dc/elements/1.1/" xmlns:rdf="http://www.w3.org/1999/02/22-rdf-syntax-ns#"><title>bopscrk logo</title><g transform="translate(99.932 23.702)"><g transform="rotate(-90 1592.6 1598.1)" stroke="#404040" stroke-linejoin="bevel"><rect x="1925" y="-604.6" width="150" height="150" rx="20" ry="20" fill="#bfbfbf" style="paint-order:stroke fill markers"/><rect x="1923.9" y="-766.8" width="150" height="150" rx="20" ry="20" fill="#fff" style="paint-order:stroke fill markers"/><rect x="1924.9" y="-445.3" width="150" height="150" rx="20" ry="20" fill="#808080" style="paint-order:stroke fill markers"/><rect x="1926.5" y="-283.22" width="150" height="150" rx="20" ry="20" fill="#404040" style="paint-order:stroke fill markers"/><rect x="1926.4" y="-123.91" width="150" height="150" rx="20" ry="20" style="paint-order:stroke fill markers"/><rect x="1926.5" y="36.459" width="150" height="150" rx="20" ry="20" fill="#69f" style="paint-order:stroke fill markers"/><rect x="1926.4" y="195.76" width="150" height="150" rx="20" ry="20" fill="#36c" style="paint-order:stroke fill markers"/><rect x="1926.5" y="352.66" width="150" height="150" rx="20" ry="20" fill="#039" style="paint-order:stroke fill markers"/><rect x="1929.9" y="1149.3" width="150" height="150" rx="20" ry="20" fill="#f90" style="paint-order:stroke fill markers"/><rect x="1929.9" y="1308.6" width="150" height="150" rx="20" ry="20" fill="#f60" style="paint-order:stroke fill markers"/><rect x="1929.9" y="1465.5" width="150" height="150" rx="20" ry="20" fill="#c00" style="paint-order:stroke fill markers"/><rect x="1926.5" y="510.23" width="150" height="150" rx="20" ry="20" fill="#9c3" style="paint-order:stroke fill markers"/><rect x="1926.4" y="669.54" width="150" height="150" rx="20" ry="20" fill="#0c0" style="paint-order:stroke fill markers"/><rect x="1926.5" y="826.43" width="150" height="150" rx="20" ry="20" fill="#690" style="paint-order:stroke fill markers"/><rect x="1926.4" y="985.74" width="150" height="150" rx="20" ry="20" fill="#fc0" style="paint-order:stroke fill markers"/></g></g><g display="none"><text x="1558.0959" y="512.60193" display="inline" fill="#ff6600" font-family="sans-serif, Normal900" font-size="771.15px" stroke-width="11.017" style="shape-padding:41.6967;white-space:pre" xml:space="preserve"><tspan fill="#ff6600" font-family="sans-serif" stroke-width="11.017" text-align="center" text-anchor="middle" style="paint-order:stroke fill markers">Ƃ</tspan></text></g><g><path d="m200 77.998c-83.1 0-150 66.9-150 150v544c0 83.1 66.9 150 150 150h600c83.1 0 150-66.9 150-150v-544c0-83.1-66.9-150-150-150z" fill="#404040"/><text x="524.09851" y="740.98499" fill="#ff6600" font-family="sans-serif, Normal900" font-size="771.15px" stroke-width="11.017" style="shape-padding:41.6967;white-space:pre" xml:space="preserve"><tspan fill="#ff6600" font-family="GothicPixels" font-size="771.15px" font-weight="500" stroke-width="11.017" text-align="center" text-anchor="middle" style="font-variant-caps:normal;font-variant-east-asian:normal;font-variant-ligatures:normal;font-variant-numeric:normal;paint-order:stroke fill markers">b</tspan></text></g><metadata><rdf:RDF><cc:Work rdf:about=""><dc:creator><cc:Agent><dc:title>https://github.com/r3nt0n</dc:title></cc:Agent></dc:creator><dc:date>1/08/2022</dc:date><dc:title>bopscrk logo</dc:title><dc:source>https://github.com/r3nt0n/bopscrk</dc:source></cc:Work></rdf:RDF></metadata></svg>
